<svg data-v-423bf9ae="" xmlns="http://www.w3.org/2000/svg" viewBox="0 0 519 90" class="iconLeft"><!----><!----><!----><g data-v-423bf9ae="" id="a2907440-e7a0-41bb-a885-53756dcc4e1e" fill="#FFFFFF" transform="matrix(4.580152988433838,0,0,4.580152988433838,104.6753921508789,-1.9465681314468384)"><path d="M0.36 12.59C1.37 13.51 2.83 14.14 4.37 14.14C6.52 14.14 8.06 13.06 8.06 11.31C8.08 7.78 2.79 8.93 2.79 6.79C2.79 6.13 3.42 5.77 4.38 5.77C5.12 5.77 6.19 6.03 7.25 6.68L7.94 5.22C7.03 4.62 5.78 4.21 4.51 4.21C2.38 4.21 0.94 5.26 0.94 6.94C0.94 10.43 6.23 9.21 6.23 11.40C6.23 12.15 5.54 12.59 4.40 12.59C3.35 12.59 2.09 12.08 1.08 11.16ZM9.90 14.08L11.49 14.08L11.49 10.40C11.49 9.10 12.28 8.12 13.57 8.08C14.66 8.08 15.32 8.76 15.32 9.90L15.32 14.08L16.93 14.08L16.93 10.40C16.93 9.10 17.70 8.12 18.97 8.08C20.06 8.08 20.73 8.76 20.73 9.90L20.73 14.08L22.34 14.08L22.34 9.45C22.34 7.67 21.32 6.58 19.61 6.58C18.26 6.58 17.26 7.13 16.79 8.37C16.44 7.24 15.53 6.58 14.20 6.58C12.96 6.58 12.01 7.03 11.49 8.08L11.49 6.64L9.90 6.64ZM23.88 11.84C23.88 13.16 24.89 14.15 26.50 14.15C27.58 14.15 28.43 13.83 28.97 13.17L28.97 14.08L30.55 14.08L30.53 9.20C30.52 7.56 29.44 6.58 27.52 6.58C26.11 6.58 25.35 6.90 24.32 7.52L24.98 8.64C25.72 8.13 26.46 7.88 27.17 7.88C28.35 7.88 28.95 8.44 28.95 9.38L28.95 9.60L26.70 9.60C24.91 9.62 23.88 10.49 23.88 11.84ZM25.40 11.77C25.40 11.06 25.89 10.78 26.94 10.78L28.95 10.78L28.95 11.47C28.87 12.28 27.99 12.88 26.84 12.88C25.94 12.88 25.40 12.45 25.40 11.77ZM32.70 14.08L34.31 14.08L34.31 10.19C34.44 8.92 35.39 8.04 36.89 8.12L36.89 6.58C35.71 6.58 34.82 7.11 34.31 8.12L34.31 6.64L32.70 6.64ZM37.46 8.12L38.51 8.12L38.51 11.98C38.51 13.51 39.48 14.15 40.60 14.15C41.23 14.15 41.85 13.96 42.43 13.61L42.03 12.38C41.59 12.59 41.24 12.70 40.91 12.70C40.40 12.70 40.11 12.46 40.11 11.69L40.11 8.12L42.31 8.12L42.31 6.92L40.11 6.92L40.11 4.87L38.51 4.87L38.51 6.92L37.46 6.92ZM46.70 12.59C47.71 13.51 49.17 14.14 50.71 14.14C52.86 14.14 54.40 13.06 54.40 11.31C54.42 7.78 49.13 8.93 49.13 6.79C49.13 6.13 49.76 5.77 50.72 5.77C51.46 5.77 52.53 6.03 53.59 6.68L54.28 5.22C53.37 4.62 52.12 4.21 50.85 4.21C48.72 4.21 47.28 5.26 47.28 6.94C47.28 10.43 52.57 9.21 52.57 11.40C52.57 12.15 51.88 12.59 50.74 12.59C49.69 12.59 48.43 12.08 47.42 11.16ZM56.31 16.80L57.92 16.80L57.92 12.80C58.46 13.66 59.36 14.14 60.55 14.14C62.68 14.14 64.08 12.61 64.08 10.39C64.08 8.12 62.64 6.58 60.52 6.58C59.36 6.58 58.46 7.06 57.92 7.92L57.92 6.64L56.31 6.64ZM57.92 10.33C57.92 8.93 58.86 7.92 60.19 7.92C61.52 7.92 62.45 8.95 62.45 10.33C62.45 11.76 61.52 12.77 60.19 12.77C58.86 12.77 57.92 11.77 57.92 10.33ZM65.06 10.37C65.06 12.61 66.57 14.14 68.87 14.14C70.15 14.14 71.22 13.68 71.95 12.88L71.09 11.97C70.55 12.53 69.80 12.84 68.99 12.84C67.82 12.84 66.93 12.12 66.68 10.98L72.31 10.98C72.51 8.29 71.44 6.58 68.82 6.58C66.61 6.59 65.06 8.12 65.06 10.37ZM66.65 9.80C66.84 8.61 67.66 7.87 68.84 7.87C70.06 7.87 70.85 8.60 70.91 9.80ZM73.99 14.08L75.60 14.08L75.60 10.12C75.71 8.96 76.48 8.11 77.71 8.09C78.83 8.09 79.51 8.78 79.51 9.90L79.51 14.08L81.12 14.08L81.12 9.45C81.12 7.67 80.08 6.58 78.34 6.58C77.08 6.58 76.13 7.03 75.60 8.06L75.60 6.64L73.99 6.64ZM82.57 10.33C82.57 12.60 84 14.15 86.14 14.15C87.33 14.15 88.23 13.68 88.76 12.81L88.76 14.08L90.37 14.08L90.37 3.70L88.76 3.70L88.76 7.92C88.21 7.06 87.32 6.57 86.11 6.57C84.01 6.57 82.57 8.09 82.57 10.33ZM84.18 10.39C84.20 8.96 85.13 7.94 86.48 7.94C87.82 7.94 88.76 8.95 88.76 10.39C88.76 11.80 87.82 12.81 86.48 12.81C85.12 12.81 84.20 11.80 84.18 10.39Z"></path></g><!----><g data-v-423bf9ae="" id="448b5160-0ae1-4c7e-8b45-850deb1416b4" transform="matrix(1.1138614416122437,0,0,1.1138614416122437,-12.44876480102539,-10.093070030212402)" stroke="none" fill="#E96D77"><path d="M81.9 47.2V22.9H32.3V9.6h-21V17h13.6v47.1h63.6v-7.4H32.3v-9.6h49.6zM32.3 29.1h42.9v12H32.3v-12zM35.9 68c-6.2 0-11.2 5-11.2 11.2 0 6.2 5 11.2 11.2 11.2s11.2-5 11.2-11.2c0-6.2-5-11.2-11.2-11.2zm0 14.5c-1.8 0-3.3-1.5-3.3-3.3 0-1.8 1.5-3.3 3.3-3.3s3.3 1.5 3.3 3.3c0 1.8-1.5 3.3-3.3 3.3zM77.6 68c-6.2 0-11.2 5-11.2 11.2 0 6.2 5 11.2 11.2 11.2 6.2 0 11.2-5 11.2-11.2 0-6.2-5-11.2-11.2-11.2zm0 14.5c-1.8 0-3.3-1.5-3.3-3.3 0-1.8 1.5-3.3 3.3-3.3 1.8 0 3.3 1.5 3.3 3.3 0 1.8-1.5 3.3-3.3 3.3z"></path></g><!----></svg>